HIERARCHY
ROOT Hips
{
  OFFSET 71.7574 47.5266 353.468
  CHANNELS 6 Xposition Yposition Zposition Zrotation Xrotation Yrotation
  JOINT Spine
  {
    OFFSET 0.0 0.0 0.0
    CHANNELS 3 Zrotation Xrotation Yrotation
    JOINT Spine1
    {
      OFFSET 38.68 0.0 0.0
      CHANNELS 3 Zrotation Xrotation Yrotation
      JOINT Neck
      {
        OFFSET 0.0 0.0 0.0
        CHANNELS 3 Zrotation Xrotation Yrotation
        JOINT Head
        {
          OFFSET 0.0 0.0 0.0
          CHANNELS 3 Zrotation Xrotation Yrotation
          End Site
          {
            OFFSET 17 0 0
          }
        }
      }
      JOINT LeftShoulder
      {
        OFFSET 0.0 0.0 14.2
        CHANNELS 3 Zrotation Xrotation Yrotation
        JOINT LeftArm
        {
          OFFSET 0.0 0.0 0.0
          CHANNELS 3 Zrotation Xrotation Yrotation
          JOINT LeftForeArm
          {
            OFFSET 21.3 0.0 0.0
            CHANNELS 3 Zrotation Xrotation Yrotation
            JOINT LeftHand
            {
              OFFSET 21.3 0.0 0.0
              CHANNELS 3 Zrotation Xrotation Yrotation
              End Site
              {
                OFFSET 7.2 0 0
              }
            }
          }
        }
      }
      JOINT RightShoulder
      {
        OFFSET 0.0 0.0 -14.2
        CHANNELS 3 Zrotation Xrotation Yrotation
        JOINT RightArm
        {
          OFFSET 0.0 0.0 0.0
          CHANNELS 3 Zrotation Xrotation Yrotation
          JOINT RightForeArm
          {
            OFFSET 21.3 0.0 0.0
            CHANNELS 3 Zrotation Xrotation Yrotation
            JOINT RightHand
            {
              OFFSET 21.3 0.0 0.0
              CHANNELS 3 Zrotation Xrotation Yrotation
              End Site
              {
                OFFSET 7.2 0 0
              }
            }
          }
        }
      }
    }
  }
  JOINT LeftUpLeg
  {
    OFFSET 0.0 0.0 14.2
    CHANNELS 3 Zrotation Xrotation Yrotation
    JOINT LeftLeg
    {
      OFFSET 21.3 0.0 0.0
      CHANNELS 3 Zrotation Xrotation Yrotation
      JOINT LeftFoot
      {
        OFFSET 21.3 0.0 0.0
        CHANNELS 3 Zrotation Xrotation Yrotation
        End Site
        {
          OFFSET 0 -10.8 0
        }
      }
    }
  }
  JOINT RightUpLeg
  {
    OFFSET 0.0 0.0 -14.2
    CHANNELS 3 Zrotation Xrotation Yrotation
    JOINT RightLeg
    {
      OFFSET 21.3 0.0 0.0
      CHANNELS 3 Zrotation Xrotation Yrotation
      JOINT RightFoot
      {
        OFFSET 21.3 0.0 0.0
        CHANNELS 3 Zrotation Xrotation Yrotation
        End Site
        {
          OFFSET 0 -10.8 0
        }
      }
    }
  }
  JOINT Tail
  {
    OFFSET 0.0 0.0 0.0
    CHANNELS 3 Zrotation Xrotation Yrotation
    JOINT Tail1
    {
      OFFSET 0.0 0.0 0.0
      CHANNELS 3 Zrotation Xrotation Yrotation
      End Site
      {
        OFFSET 12 0 0
      }
    }
  }
}
MOTION
Frames:	7
Frame Time:	0.0166667
-142.887 46.6623 -234.368 -7.74282 0.335216 44.7091 -167.572 -3.6207 -18.5816 -9.14567 2.806 -9.52482 -4.86436 3.29226 -5.1655 -131.895 81.122 136.418 -111.719 -40.2978 -134.759 118.997 -17.5444 -128.735 -74.418 -51.8777 23.5114 28.3687 1.80786 -18.0337 77.4945 -24.1831 36.9465 50.9457 -44.0089 -39.6093 -66.9146 -21.9188 0.49372 -16.7676 -1.24847 9.19781 -140.501 -1.93457 -22.7548 79.0802 19.0707 13.3768 42.3356 -4.17014 -7.51194 -112.133 -3.10995 -2.5397 76.8058 -13.7994 -1.59562 55.6311 3.063 0.374886 -35.2377 5.14551 15.7733 7.8397 -23.5103 2.15366 
-143.42 46.5657 -233.493 -7.82411 -0.62359 45.4599 -167.729 -3.74944 -19.6631 -8.24382 2.19912 -7.32506 -4.27795 3.79258 -6.11108 -133.194 81.0373 137.184 -112.092 -41.2102 -134.124 119.983 -15.2183 -127.643 -78.3894 -36.9194 17.8975 18.1847 2.04955 -8.62282 78.1267 -23.063 35.9326 51.7445 -43.9483 -37.3035 -65.8147 -21.8921 0.299474 -17.3267 -1.16828 8.86352 -140.537 -1.30888 -23.1903 73.396 20.5379 15.6058 45.3262 -4.80031 -8.15235 -109.828 -3.49966 -2.42979 77.1348 -12.6779 -1.42843 55.6039 2.81956 0.127558 -33.3217 5.66255 15.6858 8.35047 -22.8639 2.53614 
-144.087 46.4439 -232.268 -8.05353 -1.77858 46.8368 -168.13 -3.56144 -20.6463 -6.48781 1.6523 -4.37989 -3.61116 4.21715 -7.49679 -134.1 81.0868 137.005 -112.533 -42.2037 -133.538 123.496 -11.9989 -125.75 -77.6371 -20.2836 13.7839 3.78809 1.07072 -5.28103 78.8189 -21.8906 34.8979 52.4256 -43.7283 -35.143 -63.8243 -22.5385 0.744944 -17.8725 -0.916422 7.95975 -140.109 -0.521544 -23.5763 65.166 22.4212 18.6624 49.8872 -5.76329 -8.98523 -106.594 -3.45268 -2.21392 77.2188 -10.2948 -1.37013 55.9649 2.37109 -0.370509 -30.7518 6.39175 15.0734 9.07477 -22.0386 3.08514 
-144.649 46.3283 -231.046 -8.43497 -2.72353 48.5662 -168.581 -3.14155 -21.0975 -4.58626 1.33236 -1.46488 -3.22156 4.56583 -9.1265 -133.9 80.9156 136.432 -112.744 -42.8498 -132.998 126.233 -7.89179 -123.089 -73.6044 -12.8784 11.044 -3.01527 1.15761 -7.51022 79.4533 -20.8791 34.0711 52.7869 -43.0724 -33.2558 -62.0929 -21.6736 0.286177 -18.1926 -0.885176 7.69544 -139.41 -0.419742 -24.1197 58.1478 23.6727 21.4417 54.3108 -6.5222 -9.44691 -103.227 -3.05889 -2.58239 76.7037 -7.54893 -1.23213 56.7572 1.94104 -0.889147 -28.2542 6.96701 14.0886 9.78619 -21.2788 3.56454 
-145.161 46.1925 -229.788 -8.92508 -3.33079 50.5281 -169.119 -2.49075 -21.0095 -2.86838 1.32872 0.963386 -2.7916 4.95811 -10.5935 -134.15 80.8475 136.5 -113.146 -43.4225 -133.011 126.725 -2.65753 -120.083 -68.0025 -10.173 8.56454 -1.10026 0.640091 -3.66739 80.7122 -19.2327 33.8361 51.9742 -43.0946 -31.4518 -60.5823 -20.9268 -0.0328977 -17.8953 -0.854095 7.46943 -138.814 -1.47721 -24.308 54.6672 21.8483 22.4888 57.1715 -6.5158 -9.15235 -99.9883 -2.23763 -3.14243 75.7424 -6.08639 -1.25155 58.0522 1.82018 -1.13699 -25.9951 7.27851 12.7861 10.4717 -20.5479 3.86649 
-145.66 46.092 -228.484 -9.54528 -3.60704 52.4635 -170.067 -1.73647 -20.5407 -0.674632 1.51068 2.72912 -2.86894 5.36621 -11.6982 -134.69 80.8783 136.945 -113.54 -44.3091 -132.53 126.376 1.23962 -117.877 -62.5621 -7.01805 5.83317 -2.19169 0.653928 -3.69592 81.5865 -18.0735 33.5453 50.8044 -42.8929 -31.4477 -58.1948 -21.7248 1.27136 -17.5027 -0.638632 6.57658 -137.551 -3.27105 -23.9415 53.3021 17.8122 22.1011 58.9953 -6.03403 -8.47394 -96.9628 -1.17528 -3.55034 74.112 -6.16483 -1.44405 60.3296 2.04466 -1.11148 -24.0838 7.22342 11.4076 11.0571 -19.9114 4.02559 
-146.112 46.0882 -227.152 -10.3512 -3.72944 54.046 -171.035 -1.10322 -20.172 1.74647 1.71577 4.14316 -3.58509 5.64414 -12.657 -134.087 80.6004 136.676 -113.493 -45.0947 -131.255 127.224 1.84782 -117.058 -58.2444 -4.19824 3.21071 -4.79093 1.04695 -6.37215 81.8133 -17.6829 32.9929 49.7235 -42.2112 -31.9256 -55.6846 -22.0642 1.98178 -17.3569 -0.496349 5.90973 -134.711 -4.39964 -23.6951 51.6734 17.311 22.4765 57.6871 -6.11399 -8.61778 -94.0271 -0.660027 -4.21392 71.8384 -7.46125 -1.43278 63.7403 2.46131 -0.970325 -22.6302 6.77192 10.5657 11.5696 -19.5624 4.05525 
